<svg xmlns="http://www.w3.org/2000/svg" version="1.1" xmlns:xlink="http://www.w3.org/1999/xlink" xmlns:svgjs="http://svgjs.dev/svgjs" width="2000" height="1907" viewBox="0 0 2000 1907"><g transform="matrix(1,0,0,1,-0.02640174214684521,0.7734904874309905)"><svg viewBox="0 0 259 247" data-background-color="#ffffff" preserveAspectRatio="xMidYMid meet" height="1907" width="2000" xmlns="http://www.w3.org/2000/svg" xmlns:xlink="http://www.w3.org/1999/xlink"><g id="tight-bounds" transform="matrix(1,0,0,1,0.003502016916058892,-0.09997365579206985)"><svg viewBox="0 0 258.993078957476 247.2" height="247.2" width="258.993078957476"><g><svg viewBox="0 0 258.993078957476 247.2" height="247.2" width="258.993078957476"><g><svg viewBox="0 0 258.993078957476 247.2" height="247.2" width="258.993078957476"><g id="textblocktransform"><svg viewBox="0 0 258.993078957476 247.2" height="247.2" width="258.993078957476" id="textblock"><g><svg viewBox="0 0 258.993078957476 247.2" height="247.2" width="258.993078957476"><path d="M258.387 53.02C257.169 27.36 253.699 20.227 253.699 20.227 243.045-6.202 229.749-0.506 217.805 3.292 196.716 3.446 175.713 9.091 154.673 12.119 110.511 12.581 65.972 4.986 22.03 23.717 17.902 29.464-4.282 24.846 0.734 56.304 2.049 69.39 6.846 83.913 6.7 95.922 7.358 98.026 8.271 93.202 8.661 96.23 10.024 104.39 12.253 100.541 14.079 105.365 11.534 118.246 13.361 128.971 15.102 140.21 12.033 143.135 8.101 141.749 6.335 151.449 6.152 158.479 5.166 157.145 4.083 156.837 3.291 156.632 1.696 157.402 1.964 159.608 2.877 167.152-1.043 171.514 1.416 178.904-0.276 186.91 2.585 193.838 2.195 202.511 2.147 204.255 2.414 205.744 2.841 206.154 4.728 208.361 1.976 212.672 2.268 217.342 21.628 249.262 42.631 227.195 62.466 241.872 67.616 231.608 63.744 245.516 65.802 243.36 67.409 240.846 68.578 251.263 70.392 245.362 70.672 243.668 70.246 239.665 71.244 240.435 71.768 240.846 72.231 240.743 72.304 238.382 72.413 234.841 71.451 237.048 71.196 235.201 73.96 225.861 73.278 248.081 75.871 247.158 75.749 244.438 74.995 240.538 76.541 241.051 78.075 237.151 78.124 233.918 79.487 242.693 79.536 244.592 79.78 245.926 80.169 246.85 84.431 237.305 88.668 250.237 93.136 245.926 95.876 241.205 98.506 248.492 101.282 246.696 102.256 245.259 103.242 242.693 104.18 247.004 115.662 247.928 127.898 244.079 138.784 247.158 167.872 241.41 198.957 249.518 229.627 241.923 236.86 238.998 244.372 234.841 251.422 231.506 251.422 231.506 257.133 222.371 257.133 181.316S258.35 145.393 258.533 112.703C258.715 80.013 259.568 78.679 258.35 53.02Z" opacity="1" fill="#ff0033" data-fill-palette-color="tertiary"></path><g transform="matrix(1,0,0,1,55.76831999999999,26.230666666666668)"><svg width="147.456438957476" viewBox="1.55 -24.3 18.4 24.3" height="194.73866666666666" data-palette-color="#ffffff"><path d="M19.95 0L1.55 0 1.55-2.2 14.35-20.95 2.95-20.95 2.95-24.3 19.55-24.3 19.55-22.1 6.75-3.35 19.95-3.35 19.95 0Z" opacity="1" transform="matrix(1,0,0,1,0,0)" fill="#ffffff" class="wordmark-text-0" data-fill-palette-color="quaternary" id="text-0"></path></svg></g></svg></g></svg></g></svg></g><g></g></svg></g><defs></defs></svg><rect width="258.993078957476" height="247.2" fill="none" stroke="none" visibility="hidden"></rect></g></svg></g></svg>